<svg display="none" xmlns="http://www.w3.org/2000/svg">
	<symbol id="phone" viewBox="0 0 16 16">
    <g clip-path="url(#clip0)">
    <path d="M11.4996 16C10.9831 16 10.471 15.9087 9.97028 15.7268C7.76419 14.9254 5.71646 13.6201 4.0484 11.9521C2.38035 10.284 1.07509 8.23629 0.273713 6.03019C0.0161927 5.32122 -0.0598042 4.58937 0.0479102 3.8549C0.148812 3.16693 0.415301 2.49905 0.818597 1.92345C1.22367 1.34532 1.76371 0.864465 2.38031 0.532884C3.03785 0.179305 3.75554 0 4.51351 0C4.74925 0 4.95299 0.164712 5.00239 0.395203L5.78717 4.05752C5.8227 4.22336 5.77174 4.39591 5.65184 4.51585L4.31086 5.85679C5.57587 8.37188 7.62854 10.4245 10.1436 11.6896L11.4846 10.3486C11.6045 10.2287 11.7771 10.1778 11.9429 10.2132L15.6052 10.998C15.8357 11.0474 16.0004 11.2512 16.0004 11.4869C16.0004 12.2449 15.8211 12.9626 15.4675 13.6201C15.1359 14.2367 14.6551 14.7768 14.0769 15.1818C13.5014 15.5851 12.8335 15.8516 12.1455 15.9525C11.9299 15.9842 11.7143 16 11.4996 16ZM4.11402 1.02183C3.11422 1.1322 2.22682 1.65624 1.63753 2.4973C0.974872 3.44305 0.820347 4.60628 1.21358 5.6888C2.75427 9.93006 6.07041 13.2462 10.3117 14.7869C11.3942 15.1801 12.5574 15.0256 13.5032 14.3629C14.3442 13.7737 14.8683 12.8863 14.9786 11.8864L11.9994 11.248L10.5989 12.6485C10.4499 12.7975 10.2235 12.8371 10.0328 12.7475C7.05822 11.35 4.65044 8.94226 3.253 5.96769C3.16341 5.77698 3.20297 5.55055 3.35199 5.40156L4.75244 4.00112L4.11402 1.02183Z"/>
    </g>
    <defs>
    <clipPath id="clip0">
    <rect width="16" height="16"/>
    </clipPath>
    </defs>
	</symbol>
  <symbol id="loupe" viewBox="0 0 28 28">
    <g clip-path="url(#clip0)">
    <path d="M27.7653 26.5721L20.9609 19.7676C22.7862 17.6692 23.8913 14.9313 23.8913 11.9388C23.8913 5.35166 18.5334 0 11.9525 0C5.36534 0 0.0136719 5.35787 0.0136719 11.9388C0.0136719 18.5197 5.37154 23.8776 11.9525 23.8776C14.9449 23.8776 17.6829 22.7725 19.7813 20.9472L26.5857 27.7517C26.7472 27.9131 26.9645 28 27.1755 28C27.3866 28 27.6039 27.9193 27.7653 27.7517C28.0882 27.4288 28.0882 26.8949 27.7653 26.5721ZM1.68374 11.9388C1.68374 6.27672 6.29039 1.67628 11.9463 1.67628C17.6084 1.67628 22.2088 6.28293 22.2088 11.9388C22.2088 17.5947 17.6084 22.2075 11.9463 22.2075C6.29039 22.2075 1.68374 17.6009 1.68374 11.9388Z"/>
    </g>
    <defs>
    <clipPath id="clip0">
    <rect width="28" height="28"/>
    </clipPath>
    </defs>
	</symbol>
  <symbol id="heart" viewBox="0 0 31 31">
    <path d="M8.7899 2.66808C11.3759 2.65426 13.8343 3.78998 15.5 5.76804C17.1554 3.77646 19.6206 2.63751 22.2102 2.66808C27.0647 2.66808 31 6.6034 31 11.4579C31 19.7769 16.481 27.8997 15.8924 28.2136C15.6549 28.3723 15.3452 28.3723 15.1076 28.2136C14.519 27.8997 0 19.8946 0 11.4579C0 6.6034 3.9354 2.66808 8.7899 2.66808ZM15.5 26.644C17.776 25.3098 29.4304 18.2073 29.4304 11.4579C29.4304 7.47031 26.1978 4.23763 22.2101 4.23763C19.7682 4.20556 17.4829 5.43726 16.1671 7.49457C15.8999 7.86298 15.3846 7.94507 15.0162 7.67783C14.9458 7.62676 14.8839 7.56494 14.8329 7.49457C12.6506 4.15711 8.17596 3.22066 4.8385 5.40294C2.79539 6.7389 1.56564 9.01672 1.5697 11.4578C1.56962 18.2857 13.2241 25.349 15.5 26.644Z"/>
	</symbol>
  <symbol id="cart" viewBox="0 0 32 32">
    <g clip-path="url(#clip0)">
    <path d="M31.8688 13.6028C31.7435 13.4335 31.5448 13.3335 31.3341 13.3335H0.667282C0.456594 13.3335 0.257968 13.4335 0.13128 13.6015C0.0059669 13.7708 -0.0327208 13.9895 0.028592 14.1908L3.45792 25.6242C3.88461 27.0455 5.16861 28.0002 6.65124 28.0002H25.35C26.8327 28.0002 28.1167 27.0455 28.542 25.6255L31.9713 14.1921C32.0328 13.9908 31.9941 13.7708 31.8688 13.6028ZM27.2661 25.2415C27.0088 26.0935 26.2394 26.6669 25.3488 26.6669H6.65131C5.76061 26.6669 4.9913 26.0935 4.7353 25.2415L1.56329 14.6668H30.4381L27.2661 25.2415Z"/>
    <path d="M14.3311 4.08808C14.0125 3.9054 13.6045 4.01477 13.4205 4.33609L8.08711 13.6694C7.90579 13.9894 8.01642 14.3961 8.33642 14.5788C8.44042 14.6388 8.55373 14.6668 8.66711 14.6668C8.8978 14.6668 9.12311 14.5468 9.24711 14.3308L14.5805 4.9974C14.7618 4.6774 14.6511 4.27071 14.3311 4.08808Z" />
    <path d="M23.9134 13.6694L18.58 4.33609C18.3934 4.01477 17.984 3.9054 17.6693 4.08808C17.348 4.27077 17.2373 4.6774 17.42 4.9974L22.7534 14.3308C22.8774 14.5468 23.1027 14.6668 23.3334 14.6668C23.4467 14.6668 23.5601 14.6388 23.6641 14.5788C23.9854 14.3961 24.0961 13.9894 23.9134 13.6694Z" />
    </g>
    <defs>
    <clipPath id="clip0">
    <rect width="32" height="32"/>
    </clipPath>
    </defs>
	</symbol>
  <symbol id="facebook" viewBox="0 0 19 19">
    <g clip-path="url(#clip0)">
    <path d="M10.7826 18.9629H7.73393C7.22471 18.9629 6.81048 18.5495 6.81048 18.0412V11.1783H5.03185C4.52263 11.1783 4.1084 10.7648 4.1084 10.2567V7.31591C4.1084 6.80769 4.52263 6.39426 5.03185 6.39426H6.81048V4.92163C6.81048 3.46146 7.26988 2.21917 8.13887 1.32927C9.01177 0.43531 10.2317 -0.0371094 11.6667 -0.0371094L13.9917 -0.0333405C14.5 -0.0324707 14.9135 0.380951 14.9135 0.888306V3.61874C14.9135 4.12697 14.4995 4.54039 13.9904 4.54039L12.425 4.54097C11.9476 4.54097 11.826 4.6365 11.8 4.66578C11.7571 4.71434 11.7062 4.85162 11.7062 5.23068V6.39412H13.8727C14.0358 6.39412 14.1939 6.43427 14.3297 6.50994C14.6226 6.67331 14.8048 6.98222 14.8048 7.31606L14.8036 10.2568C14.8036 10.7648 14.3894 11.1782 13.8801 11.1782H11.7062V18.0412C11.7062 18.5495 11.2918 18.9629 10.7826 18.9629ZM7.92652 17.849H10.59V10.6797C10.59 10.3403 10.8667 10.0643 11.2065 10.0643H13.6876L13.6886 7.50813H11.2064C10.8665 7.50813 10.59 7.23213 10.59 6.89278V5.23068C10.59 4.79552 10.6343 4.30063 10.9634 3.92867C11.3611 3.479 11.9878 3.42711 12.4247 3.42711L13.7975 3.42653V1.08023L11.6658 1.07675C9.35963 1.07675 7.92652 2.55011 7.92652 4.92163V6.89278C7.92652 7.23198 7.64998 7.50813 7.31012 7.50813H5.22444V10.0643H7.31012C7.64998 10.0643 7.92652 10.3403 7.92652 10.6797V17.849ZM13.9895 1.08052H13.9897H13.9895Z"/>
    </g>
    <defs>
    <clipPath id="clip0">
    <rect width="19" height="19"/>
    </clipPath>
    </defs>
	</symbol>
  <symbol id="instagram" viewBox="0 0 19 19">
    <path d="M13.8568 0H5.14312C2.30716 0 0 2.30716 0 5.14312V13.857C0 16.6928 2.30716 19 5.14312 19H13.857C16.6928 19 19 16.6928 19 13.857V5.14312C19 2.30716 16.6928 0 13.8568 0V0ZM17.8861 13.857C17.8861 16.0786 16.0786 17.8861 13.8568 17.8861H5.14312C2.92134 17.8861 1.11386 16.0786 1.11386 13.857V5.14312C1.11386 2.92134 2.92134 1.11386 5.14312 1.11386H13.857C16.0786 1.11386 17.8861 2.92134 17.8861 5.14312V13.857Z"/>
    <path d="M9.49985 4.30469C6.63518 4.30469 4.30469 6.63518 4.30469 9.49985C4.30469 12.3645 6.63518 14.695 9.49985 14.695C12.3645 14.695 14.695 12.3645 14.695 9.49985C14.695 6.63518 12.3645 4.30469 9.49985 4.30469ZM9.49985 13.5811C7.24951 13.5811 5.41855 11.7503 5.41855 9.49985C5.41855 7.24951 7.24951 5.41855 9.49985 5.41855C11.7503 5.41855 13.5811 7.24951 13.5811 9.49985C13.5811 11.7503 11.7503 13.5811 9.49985 13.5811Z"/>
    <path d="M14.8193 2.45972C13.9727 2.45972 13.2842 3.14841 13.2842 3.99482C13.2842 4.84138 13.9727 5.53008 14.8193 5.53008C15.6658 5.53008 16.3545 4.84138 16.3545 3.99482C16.3545 3.14827 15.6658 2.45972 14.8193 2.45972ZM14.8193 4.41607C14.5871 4.41607 14.398 4.22705 14.398 3.99482C14.398 3.76246 14.5871 3.57358 14.8193 3.57358C15.0517 3.57358 15.2407 3.76246 15.2407 3.99482C15.2407 4.22705 15.0517 4.41607 14.8193 4.41607Z"/>
	</symbol>
  <symbol id="arrow-down" viewBox="0 0 11 11">
    <g clip-path="url(#clip0)">
    <path d="M5.49746 7.4412L10.2776 2.6611C10.4428 2.49584 10.7108 2.49584 10.8761 2.6611C11.0413 2.8264 11.0413 3.09433 10.8761 3.25961L5.79671 8.33897C5.63144 8.5042 5.36348 8.5042 5.1982 8.33897L0.118837 3.25961C-0.0435641 3.09145 -0.0389006 2.8235 0.129254 2.6611C0.293292 2.50269 0.553336 2.50269 0.717349 2.6611L5.49746 7.4412Z"/>
    </g>
    <defs>
    <clipPath id="clip0">
    <rect width="11" height="11" transform="matrix(-4.37114e-08 -1 -1 4.37114e-08 11 11)"/>
    </clipPath>
    </defs>
	</symbol>
  <symbol id="arrow-right" viewBox="0 0 14 14">
    <path d="M0 7.00017C0 7.27182 0.22018 7.492 0.49183 7.492L12.3358 7.492L9.23325 10.5917C9.13889 10.686 9.09027 10.8119 9.09027 10.9377C9.09027 11.0635 9.13889 11.1893 9.23325 11.2837C9.42483 11.4753 9.73652 11.4753 9.9281 11.2837L13.8627 7.34617C14.0457 7.16316 14.0457 6.83718 13.8627 6.65131L9.92524 2.71668C9.73366 2.52509 9.42197 2.52509 9.23039 2.71668C9.03881 2.90826 9.03881 3.21994 9.23039 3.41153L12.3301 6.5112L0.48897 6.5112C0.21732 6.50834 0 6.72852 0 7.00017Z"/>
	</symbol>
  <symbol id="" viewBox="">
	</symbol>
  <symbol id="" viewBox="">
	</symbol>
  <symbol id="" viewBox="">
	</symbol>
  <symbol id="" viewBox="">
	</symbol>
  <symbol id="" viewBox="">
	</symbol>
  <symbol id="" viewBox="">
	</symbol>
  <symbol id="" viewBox="">
	</symbol>
</svg>